<svg xmlns="http://www.w3.org/2000/svg" width="1920" height="1080" viewBox="0 0 1920 1080">
  <defs>
    <linearGradient id="sky" x1="0" y1="0" x2="0" y2="1">
      <stop offset="0" stop-color="#0b1535"/><stop offset="0.34" stop-color="#28335f"/><stop offset="0.68" stop-color="#b34b68"/><stop offset="1" stop-color="#e19a68"/>
    </linearGradient>
    <linearGradient id="title" x1="0" y1="0" x2="0" y2="1">
      <stop offset="0" stop-color="#ffd76a"/><stop offset="0.48" stop-color="#ff9d2e"/><stop offset="1" stop-color="#d65317"/>
    </linearGradient>
    <linearGradient id="meadow" x1="0" y1="0" x2="0" y2="1"><stop offset="0" stop-color="#52683a"/><stop offset="1" stop-color="#1e3827"/></linearGradient>
    <pattern id="titleBlocks" width="24" height="24" patternUnits="userSpaceOnUse">
      <rect width="24" height="24" fill="url(#title)"/><rect width="12" height="12" fill="#fff" opacity=".07"/><rect x="12" y="12" width="12" height="12" fill="#5b180c" opacity=".11"/>
    </pattern>
    <filter id="shadow" x="-40%" y="-40%" width="180%" height="180%"><feDropShadow dx="14" dy="18" stdDeviation="1" flood-color="#05070c" flood-opacity=".95"/></filter>
    <filter id="pinkGlow" x="-300%" y="-300%" width="700%" height="700%"><feGaussianBlur stdDeviation="8" result="blur"/><feMerge><feMergeNode in="blur"/><feMergeNode in="SourceGraphic"/></feMerge></filter>
  </defs>
  <rect width="1920" height="1080" fill="url(#sky)"/><rect width="1920" height="1080" fill="#08101f" opacity=".08"/>
  <g opacity=".82">
    <rect x="145" y="116" width="8" height="8" fill="#ef7cff" filter="url(#pinkGlow)"/><rect x="315" y="185" width="7" height="7" fill="#76cfff" filter="url(#pinkGlow)"/>
    <rect x="1610" y="125" width="8" height="8" fill="#ff6a79" filter="url(#pinkGlow)"/><rect x="1760" y="214" width="6" height="6" fill="#9675ff" filter="url(#pinkGlow)"/>
    <rect x="1260" y="88" width="6" height="6" fill="#ef7cff" filter="url(#pinkGlow)"/><rect x="694" y="118" width="7" height="7" fill="#6ec9ff" filter="url(#pinkGlow)"/>
  </g>
  <path d="M0 552 L112 494 L218 525 L350 430 L461 491 L602 390 L738 492 L854 414 L1008 506 L1150 400 L1308 486 L1434 421 L1580 493 L1738 414 L1920 520 L1920 720 L0 720 Z" fill="#314355"/>
  <path d="M0 626 L156 545 L294 578 L451 495 L582 552 L732 471 L905 574 L1057 489 L1217 565 L1360 487 L1517 557 L1663 500 L1920 601 L1920 765 L0 765 Z" fill="#3f5146"/>
  <g opacity=".38" fill="#ddd2c4"><rect x="410" y="497" width="68" height="13"/><rect x="584" y="426" width="54" height="11"/><rect x="1134" y="440" width="74" height="12"/><rect x="1710" y="461" width="68" height="12"/></g>
  <rect y="654" width="1920" height="426" fill="url(#meadow)"/>
  <path d="M0 720 C330 655 630 728 960 684 C1250 646 1555 726 1920 670 L1920 1080 L0 1080 Z" fill="#344c2b"/>
  <path d="M0 858 C322 789 627 876 942 831 C1241 789 1510 872 1920 815 L1920 1080 L0 1080 Z" fill="#203a25"/>
  <g>
    <rect x="120" y="530" width="56" height="250" fill="#5d3727"/><rect x="84" y="500" width="54" height="80" fill="#75412b"/><rect x="148" y="486" width="58" height="83" fill="#6a3a29"/>
    <rect x="28" y="385" width="96" height="96" fill="#bf4e20"/><rect x="106" y="347" width="104" height="106" fill="#e06d22"/><rect x="191" y="393" width="100" height="91" fill="#a53f20"/>
    <rect x="65" y="445" width="110" height="92" fill="#d88927"/><rect x="162" y="455" width="112" height="92" fill="#c35e1f"/><rect x="32" y="463" width="42" height="41" fill="#f0a33a"/><rect x="233" y="434" width="47" height="45" fill="#f58e32"/>
  </g>
  <g>
    <rect x="1698" y="545" width="58" height="242" fill="#5c362a"/><rect x="1655" y="512" width="60" height="88" fill="#714029"/><rect x="1740" y="500" width="64" height="95" fill="#6b3d2c"/>
    <rect x="1572" y="397" width="105" height="100" fill="#a93828"/><rect x="1650" y="347" width="109" height="111" fill="#d8562a"/><rect x="1744" y="388" width="117" height="103" fill="#b94724"/>
    <rect x="1605" y="453" width="116" height="99" fill="#d87b25"/><rect x="1706" y="459" width="111" height="97" fill="#c55327"/><rect x="1810" y="433" width="65" height="55" fill="#e79a33"/><rect x="1544" y="449" width="61" height="52" fill="#f0933b"/>
  </g>
  <g transform="translate(690 650)">
    <rect x="430" y="177" width="92" height="34" fill="#e87921"/><rect x="502" y="150" width="39" height="61" fill="#e87921"/><rect x="523" y="124" width="35" height="46" fill="#171513"/><rect x="489" y="177" width="22" height="34" fill="#171513"/>
    <rect x="132" y="126" width="344" height="166" rx="4" fill="#e97921"/><rect x="145" y="145" width="310" height="126" fill="#f08b28"/>
    <path d="M210 126 h35 l20 78 h-34z M304 126 h34 l17 70 h-31z M389 126 h32 l-3 82 h-33z" fill="#191715"/>
    <rect x="162" y="270" width="62" height="122" fill="#e97921"/><rect x="377" y="270" width="62" height="122" fill="#e97921"/>
    <rect x="151" y="365" width="82" height="37" fill="#f0e7d4"/><rect x="365" y="365" width="82" height="37" fill="#f0e7d4"/>
    <rect x="177" y="288" width="18" height="48" fill="#191715"/><rect x="397" y="288" width="18" height="48" fill="#191715"/><rect x="90" y="110" width="100" height="142" fill="#ed8124"/>
    <rect x="0" y="20" width="184" height="177" rx="3" fill="#ec8125"/><rect x="18" y="0" width="54" height="55" fill="#de7021"/><rect x="118" y="0" width="54" height="55" fill="#de7021"/>
    <rect x="28" y="10" width="29" height="32" fill="#2a1b1c"/><rect x="132" y="10" width="27" height="32" fill="#2a1b1c"/>
    <path d="M14 55 h38 l-19 41h-29z M132 55 h40 l8 42h-29z M76 22 h35 l-8 54H84z" fill="#191715"/>
    <rect x="43" y="91" width="24" height="18" fill="#111"/><rect x="119" y="91" width="24" height="18" fill="#111"/><rect x="49" y="94" width="8" height="8" fill="#78d8ff"/><rect x="125" y="94" width="8" height="8" fill="#78d8ff"/>
    <rect x="52" y="122" width="83" height="54" fill="#f3e8d5"/><rect x="78" y="115" width="34" height="25" fill="#241b1b"/><rect x="90" y="139" width="10" height="21" fill="#2b1c1c"/>
    <rect x="62" y="166" width="31" height="8" fill="#d4605c"/><rect x="100" y="166" width="28" height="8" fill="#d4605c"/>
  </g>
  <g opacity=".95">
    <rect x="0" y="928" width="94" height="152" fill="#253f26"/><rect x="71" y="964" width="120" height="116" fill="#3e5527"/><rect x="180" y="918" width="108" height="162" fill="#6f5a24"/><rect x="271" y="973" width="144" height="107" fill="#355027"/>
    <rect x="1490" y="958" width="138" height="122" fill="#3f5529"/><rect x="1608" y="915" width="104" height="165" fill="#7a5424"/><rect x="1697" y="952" width="132" height="128" fill="#355126"/><rect x="1811" y="924" width="109" height="156" fill="#213d26"/>
  </g>
  <g>
    <rect x="415" y="858" width="10" height="10" fill="#ff668f" filter="url(#pinkGlow)"/><rect x="511" y="919" width="11" height="11" fill="#7bd8ff" filter="url(#pinkGlow)"/>
    <rect x="607" y="836" width="9" height="9" fill="#b174ff" filter="url(#pinkGlow)"/><rect x="1293" y="876" width="10" height="10" fill="#ff5353" filter="url(#pinkGlow)"/>
    <rect x="1407" y="930" width="12" height="12" fill="#69caff" filter="url(#pinkGlow)"/><rect x="1531" y="848" width="10" height="10" fill="#e66cff" filter="url(#pinkGlow)"/>
    <g fill="#e6b64b" opacity=".8"><rect x="343" y="810" width="9" height="9"/><rect x="565" y="776" width="8" height="8"/><rect x="1192" y="809" width="8" height="8"/><rect x="1450" y="785" width="9" height="9"/></g>
  </g>
  <g text-anchor="middle" font-family="Impact, Haettenschweiler, 'Arial Black', sans-serif" font-weight="900">
    <text x="972" y="285" font-size="186" letter-spacing="4" fill="#17120e" stroke="#0a0908" stroke-width="28" filter="url(#shadow)">TIGERCRAFT</text>
    <text x="960" y="268" font-size="186" letter-spacing="4" fill="url(#titleBlocks)" stroke="#24140c" stroke-width="18" paint-order="stroke">TIGERCRAFT</text>
    <text x="960" y="268" font-size="186" letter-spacing="4" fill="none" stroke="#ffdf72" stroke-width="3" opacity=".58">TIGERCRAFT</text>
    <text x="960" y="337" font-family="monospace" font-size="28" letter-spacing="9" fill="#ffe3c1" stroke="#12131a" stroke-width="3" paint-order="stroke">PAWLING TIGERS • BUILD • TEST • ITERATE</text>
  </g>
  <rect x="22" y="22" width="1876" height="1036" fill="none" stroke="#ff8a37" stroke-width="6" opacity=".34"/><rect x="35" y="35" width="1850" height="1010" fill="none" stroke="#759fff" stroke-width="2" opacity=".2"/>
</svg>